<?xml version="1.0" encoding="utf-8"?>
<!-- Generator: Adobe Illustrator 28.3.0, SVG Export Plug-In . SVG Version: 6.00 Build 0)  -->
<svg version="1.1" id="Layer_1" xmlns="http://www.w3.org/2000/svg" xmlns:xlink="http://www.w3.org/1999/xlink" x="0px" y="0px"
	 viewBox="0 0 12 12" style="enable-background:new 0 0 12 12;" xml:space="preserve">
<path fill="currentColor" d="M9.8,0.8H2.2c-0.8,0-1.5,0.7-1.5,1.5v7.5c0,0.8,0.7,1.5,1.5,1.5h7.5c0.8,0,1.5-0.7,1.5-1.5V2.2C11.2,1.4,10.6,0.8,9.8,0.8z
	 M6.9,9.3c-0.1,0.8-0.2,1-0.3,1.2c-0.2,0.2-0.5,0.3-0.8,0.1h0c-0.4-0.1-0.4-0.3-0.6-1.3C5,8.1,4.9,7.3,5,7.1c0.1-0.3,0.5-0.5,1-0.5
	l0,0c0.5,0,0.9,0.2,1,0.5C7.1,7.3,7,8.1,6.9,9.3z M4.3,7.1l0.2,0.2v0.3c0,0.2,0,0.3,0,0.3c0,0-0.1-0.1-0.3-0.2l0,0
	C3.8,7.4,3.4,6.8,3.3,6.2c-0.1-0.3-0.1-1,0-1.4c0.3-0.9,0.9-1.7,1.9-2c0.2-0.1,0.6-0.1,0.9-0.1l0,0c0.2,0,0.4,0,0.6,0.1
	C8,3.1,9,4.5,8.8,5.9c-0.1,0.6-0.3,1-0.6,1.4C8,7.6,7.6,7.9,7.6,7.9c0,0,0-0.1,0-0.3V7.3l0.2-0.2C8.5,6.1,8.5,4.8,7.6,4
	C7.3,3.6,6.9,3.4,6.4,3.3C6.1,3.3,6,3.3,5.7,3.3C5.2,3.4,4.8,3.6,4.4,4C3.6,4.8,3.5,6.1,4.3,7.1z M6.4,4.4C6.7,4.5,6.9,4.7,6.9,5
	c0.2,0.8-0.6,1.5-1.4,1.1h0C5.2,5.9,5,5.6,5,5.2c0-0.4,0.2-0.7,0.6-0.9C5.7,4.3,5.8,4.3,6,4.3l0,0C6.2,4.3,6.3,4.3,6.4,4.4z
	 M10.2,6.3c-0.2,1.1-0.8,2-1.6,2.6c-0.3,0.2-1,0.6-1.2,0.6c0,0,0,0,0-0.2C7.4,9,7.4,9,7.6,8.9c0.3-0.1,0.7-0.4,1-0.7
	c0.5-0.5,0.8-1.1,1-1.8c0.1-0.4,0.1-1.3,0-1.8C9.2,3.3,8.1,2.3,6.8,2C6.4,1.9,5.7,1.9,5.3,2C3.9,2.3,2.8,3.4,2.4,4.8
	C2.3,5.1,2.3,6,2.4,6.4C2.7,7.3,3.2,8.2,4,8.7c0.2,0.1,0.3,0.2,0.4,0.2C4.6,9,4.6,9,4.7,9.3c0,0.2,0,0.2,0,0.2c0,0-0.2-0.1-0.4-0.2
	l0,0c-1.2-0.6-2-1.6-2.3-3C1.8,6,1.8,5.2,1.8,4.8C2,4,2.4,3.3,2.9,2.7C3.8,1.8,4.8,1.4,6,1.4c0,0,0,0,0,0h0c0,0,0,0,0,0
	c1.2,0,2.2,0.5,3,1.3c0.6,0.6,1,1.3,1.1,2.2C10.2,5.1,10.2,6,10.2,6.3z"/>
</svg>
